<mxfile host="app.diagrams.net" agent="Mozilla/5.0 (Windows NT 10.0; Win64; x64) AppleWebKit/537.36 (KHTML, like Gecko) Chrome/134.0.0.0 Safari/537.36" version="26.1.1">
  <diagram name="Page-1" id="cYRxRDWVBS2EJCelMKxz">
    <mxGraphModel dx="1034" dy="547" grid="1" gridSize="10" guides="1" tooltips="1" connect="1" arrows="1" fold="1" page="1" pageScale="1" pageWidth="850" pageHeight="1100" background="#ffffff" math="0" shadow="0">
      <root>
        <mxCell id="0" />
        <mxCell id="1" parent="0" />
        <mxCell id="9Gg9OIumS9iX-m_zziHT-54" value="" style="shape=process;whiteSpace=wrap;html=1;backgroundOutline=1;size=0.001610305958132045;fillColor=#dae8fc;strokeColor=#6c8ebf;" vertex="1" parent="1">
          <mxGeometry x="100" y="360.5" width="621" height="142" as="geometry" />
        </mxCell>
        <mxCell id="9Gg9OIumS9iX-m_zziHT-1" value="Mong&lt;span style=&quot;text-wrap-mode: nowrap; color: rgba(0, 0, 0, 0); font-family: monospace; font-size: 0px; text-align: start;&quot;&gt;%3CmxGraphModel%3E%3Croot%3E%3CmxCell%20id%3D%220%22%2F%3E%3CmxCell%20id%3D%221%22%20parent%3D%220%22%2F%3E%3CmxCell%20id%3D%222%22%20value%3D%22Map%20to%20Service%20Domain%20Objects%26amp%3Bnbsp%3B%22%20style%3D%22shape%3Dstep%3Bperimeter%3DstepPerimeter%3BfixedSize%3D1%3Bpoints%3D%5B%5D%3BwhiteSpace%3Dwrap%3Bhtml%3D1%3B%22%20vertex%3D%221%22%20parent%3D%221%22%3E%3CmxGeometry%20x%3D%22370%22%20y%3D%22150%22%20width%3D%22160%22%20height%3D%2257%22%20as%3D%22geometry%22%2F%3E%3C%2FmxCell%3E%3C%2Froot%3E%3C%2FmxGraphModel%3E&lt;/span&gt;o DB Collection&lt;div&gt;(source)&lt;/div&gt;" style="shape=cylinder3;whiteSpace=wrap;html=1;boundedLbl=1;backgroundOutline=1;size=15;fillColor=#d5e8d4;strokeColor=#82b366;" vertex="1" parent="1">
          <mxGeometry x="360" width="60" height="80" as="geometry" />
        </mxCell>
        <mxCell id="9Gg9OIumS9iX-m_zziHT-2" value="Mong&lt;span style=&quot;text-wrap-mode: nowrap; color: rgba(0, 0, 0, 0); font-family: monospace; font-size: 0px; text-align: start;&quot;&gt;%3CmxGraphModel%3E%3Croot%3E%3CmxCell%20id%3D%220%22%2F%3E%3CmxCell%20id%3D%221%22%20parent%3D%220%22%2F%3E%3CmxCell%20id%3D%222%22%20value%3D%22Map%20to%20Service%20Domain%20Objects%26amp%3Bnbsp%3B%22%20style%3D%22shape%3Dstep%3Bperimeter%3DstepPerimeter%3BfixedSize%3D1%3Bpoints%3D%5B%5D%3BwhiteSpace%3Dwrap%3Bhtml%3D1%3B%22%20vertex%3D%221%22%20parent%3D%221%22%3E%3CmxGeometry%20x%3D%22370%22%20y%3D%22150%22%20width%3D%22160%22%20height%3D%2257%22%20as%3D%22geometry%22%2F%3E%3C%2FmxCell%3E%3C%2Froot%3E%3C%2FmxGraphModel%3E&lt;/span&gt;o DB Collection&lt;div&gt;(source)&lt;/div&gt;" style="shape=cylinder3;whiteSpace=wrap;html=1;boundedLbl=1;backgroundOutline=1;size=15;fillColor=#d5e8d4;strokeColor=#82b366;" vertex="1" parent="1">
          <mxGeometry x="364" y="528" width="60" height="80" as="geometry" />
        </mxCell>
        <mxCell id="9Gg9OIumS9iX-m_zziHT-6" value="" style="sketch=0;points=[[0,0,0],[0.25,0,0],[0.5,0,0],[0.75,0,0],[1,0,0],[0,1,0],[0.25,1,0],[0.5,1,0],[0.75,1,0],[1,1,0],[0,0.25,0],[0,0.5,0],[0,0.75,0],[1,0.25,0],[1,0.5,0],[1,0.75,0]];outlineConnect=0;fontColor=#232F3E;fillColor=#8C4FFF;strokeColor=#ffffff;dashed=0;verticalLabelPosition=bottom;verticalAlign=top;align=center;html=1;fontSize=12;fontStyle=0;aspect=fixed;shape=mxgraph.aws4.resourceIcon;resIcon=mxgraph.aws4.managed_streaming_for_kafka;" vertex="1" parent="1">
          <mxGeometry x="353" y="270" width="78" height="78" as="geometry" />
        </mxCell>
        <mxCell id="9Gg9OIumS9iX-m_zziHT-24" value="" style="endArrow=classic;html=1;rounded=0;" edge="1" parent="1">
          <mxGeometry relative="1" as="geometry">
            <mxPoint x="720" y="160" as="sourcePoint" />
            <mxPoint x="429" y="302" as="targetPoint" />
            <Array as="points">
              <mxPoint x="760" y="160" />
              <mxPoint x="760" y="230" />
              <mxPoint x="760" y="302" />
              <mxPoint x="749" y="302" />
            </Array>
          </mxGeometry>
        </mxCell>
        <mxCell id="9Gg9OIumS9iX-m_zziHT-25" value="publish records to kafka" style="edgeLabel;resizable=0;html=1;;align=center;verticalAlign=middle;" connectable="0" vertex="1" parent="9Gg9OIumS9iX-m_zziHT-24">
          <mxGeometry relative="1" as="geometry">
            <mxPoint x="-89" as="offset" />
          </mxGeometry>
        </mxCell>
        <mxCell id="9Gg9OIumS9iX-m_zziHT-29" value="" style="endArrow=classic;html=1;rounded=0;entryX=0;entryY=0.5;entryDx=0;entryDy=0;" edge="1" parent="1">
          <mxGeometry relative="1" as="geometry">
            <mxPoint x="350" y="300" as="sourcePoint" />
            <mxPoint x="94" y="434" as="targetPoint" />
            <Array as="points">
              <mxPoint x="200" y="300" />
              <mxPoint x="50" y="300" />
              <mxPoint x="49" y="434" />
            </Array>
          </mxGeometry>
        </mxCell>
        <mxCell id="9Gg9OIumS9iX-m_zziHT-30" value="Consume Record from Kafka" style="edgeLabel;resizable=0;html=1;;align=center;verticalAlign=middle;" connectable="0" vertex="1" parent="9Gg9OIumS9iX-m_zziHT-29">
          <mxGeometry relative="1" as="geometry">
            <mxPoint x="113" y="-1" as="offset" />
          </mxGeometry>
        </mxCell>
        <mxCell id="9Gg9OIumS9iX-m_zziHT-37" value="" style="edgeStyle=elbowEdgeStyle;elbow=horizontal;endArrow=classic;html=1;curved=0;rounded=0;endSize=8;startSize=8;exitX=1.003;exitY=0.555;exitDx=0;exitDy=0;exitPerimeter=0;" edge="1" parent="1">
          <mxGeometry width="50" height="50" relative="1" as="geometry">
            <mxPoint x="721.8629999999998" y="432.30999999999995" as="sourcePoint" />
            <mxPoint x="424" y="568" as="targetPoint" />
            <Array as="points">
              <mxPoint x="769" y="493" />
            </Array>
          </mxGeometry>
        </mxCell>
        <mxCell id="9Gg9OIumS9iX-m_zziHT-44" value="" style="edgeStyle=segmentEdgeStyle;endArrow=classic;html=1;curved=0;rounded=0;endSize=8;startSize=8;exitX=0;exitY=0.5;exitDx=0;exitDy=0;exitPerimeter=0;" edge="1" parent="1">
          <mxGeometry width="50" height="50" relative="1" as="geometry">
            <mxPoint x="360" y="40" as="sourcePoint" />
            <mxPoint x="96" y="179" as="targetPoint" />
            <Array as="points">
              <mxPoint x="46" y="40" />
              <mxPoint x="46" y="179" />
            </Array>
          </mxGeometry>
        </mxCell>
        <mxCell id="9Gg9OIumS9iX-m_zziHT-47" value="recieve Pojo with Mapping Properties" style="shape=step;perimeter=stepPerimeter;whiteSpace=wrap;html=1;fixedSize=1;fillColor=#fff2cc;strokeColor=#d6b656;" vertex="1" parent="1">
          <mxGeometry x="106" y="410" width="173" height="42.5" as="geometry" />
        </mxCell>
        <mxCell id="9Gg9OIumS9iX-m_zziHT-48" value="Form CR and BQ" style="shape=step;perimeter=stepPerimeter;whiteSpace=wrap;html=1;fixedSize=1;fillColor=#fff2cc;strokeColor=#d6b656;" vertex="1" parent="1">
          <mxGeometry x="268" y="410" width="143" height="42.5" as="geometry" />
        </mxCell>
        <mxCell id="9Gg9OIumS9iX-m_zziHT-49" value="split CR and BQ to&amp;nbsp;&lt;div&gt;entities with LDM&lt;/div&gt;" style="shape=step;perimeter=stepPerimeter;whiteSpace=wrap;html=1;fixedSize=1;fillColor=#fff2cc;strokeColor=#d6b656;" vertex="1" parent="1">
          <mxGeometry x="400" y="410" width="170" height="42.5" as="geometry" />
        </mxCell>
        <mxCell id="9Gg9OIumS9iX-m_zziHT-50" value="Invoke Xaap Generated Persistence Layer" style="shape=step;perimeter=stepPerimeter;whiteSpace=wrap;html=1;fixedSize=1;fillColor=#fff2cc;strokeColor=#d6b656;" vertex="1" parent="1">
          <mxGeometry x="557" y="410" width="160" height="42.5" as="geometry" />
        </mxCell>
        <mxCell id="9Gg9OIumS9iX-m_zziHT-52" value="Flink Job Consumer" style="text;html=1;align=center;verticalAlign=middle;whiteSpace=wrap;rounded=0;fontStyle=1" vertex="1" parent="1">
          <mxGeometry x="280" y="378" width="240" height="30" as="geometry" />
        </mxCell>
        <mxCell id="9Gg9OIumS9iX-m_zziHT-55" value="" style="shape=process;whiteSpace=wrap;html=1;backgroundOutline=1;size=0.001610305958132045;fillColor=#dae8fc;strokeColor=#6c8ebf;aspect=fixed;" vertex="1" parent="1">
          <mxGeometry x="96" y="110" width="621" height="142" as="geometry" />
        </mxCell>
        <mxCell id="9Gg9OIumS9iX-m_zziHT-56" value="Fetch the&amp;nbsp;&lt;div&gt;collection&lt;/div&gt;" style="shape=step;perimeter=stepPerimeter;whiteSpace=wrap;html=1;fixedSize=1;fillColor=#fff2cc;strokeColor=#d6b656;" vertex="1" parent="1">
          <mxGeometry x="149" y="150" width="100" height="42.5" as="geometry" />
        </mxCell>
        <mxCell id="9Gg9OIumS9iX-m_zziHT-57" value="Filter the property&amp;nbsp;&lt;span style=&quot;background-color: transparent; color: light-dark(rgb(0, 0, 0), rgb(255, 255, 255));&quot;&gt;based&lt;/span&gt;&lt;div&gt;&lt;div&gt;&amp;nbsp;on mapping&lt;/div&gt;&lt;/div&gt;" style="shape=step;perimeter=stepPerimeter;whiteSpace=wrap;html=1;fixedSize=1;fillColor=#fff2cc;strokeColor=#d6b656;" vertex="1" parent="1">
          <mxGeometry x="246" y="150" width="210" height="42.5" as="geometry" />
        </mxCell>
        <mxCell id="9Gg9OIumS9iX-m_zziHT-58" value="Form Java POJO to publish" style="shape=step;perimeter=stepPerimeter;whiteSpace=wrap;html=1;fixedSize=1;fillColor=#fff2cc;strokeColor=#d6b656;" vertex="1" parent="1">
          <mxGeometry x="451" y="150" width="200" height="42.5" as="geometry" />
        </mxCell>
        <mxCell id="9Gg9OIumS9iX-m_zziHT-59" value="Flink Job Producer" style="text;html=1;align=center;verticalAlign=middle;whiteSpace=wrap;rounded=0;fontStyle=1" vertex="1" parent="1">
          <mxGeometry x="271.5" y="116" width="240" height="30" as="geometry" />
        </mxCell>
      </root>
    </mxGraphModel>
  </diagram>
</mxfile>
